<svg width="798" height="122" viewBox="0 0 798 122" fill="none" xmlns="http://www.w3.org/2000/svg">
<path d="M69.7262 0.681396C102.798 8.15858 120.587 30.7569 120.46 64.4162C120.39 82.8843 120.447 101.353 120.447 120.144C112.505 120.144 105.014 120.144 96.731 120.144C96.731 115.632 96.7312 111.156 96.7309 106.679C96.7298 90.9563 96.8915 75.2312 96.6842 59.5109C96.4482 41.6289 82.7018 26.1968 65.5911 24.1835C46.4812 21.935 29.7785 32.8737 25.05 50.7344C20.3147 68.6208 29.1264 86.6315 46.1658 93.8029C47.9284 94.5448 49.8007 95.0262 52.2506 95.8364C52.2506 83.7602 52.2506 72.3324 52.2506 60.5596C59.3879 60.5596 66.0425 60.5596 72.9974 60.5596C72.9974 80.2912 72.9974 99.9412 72.9969 119.592C37.129 125.473 8.78987 104.06 1.56122 73.494C-5.98469 41.5861 14.5922 8.61348 46.6899 1.7613C53.9455 0.212379 61.6843 0.927225 69.7262 0.681396Z" fill="#3063E6"/>
<path d="M180.655 110.179C180.655 113.709 180.655 116.669 180.655 120.061C172.778 120.061 165.16 120.061 156.876 120.061C156.876 116 156.867 112.082 156.878 108.165C156.923 91.8499 157 75.535 157.019 59.2201C157.047 34.1035 140.122 11.1057 115.66 2.96113C114.2 2.47485 112.737 1.99465 110.838 1.36718C139.983 -5.73716 172.195 15.6695 179.139 46.4753C180.179 51.0867 180.583 55.9227 180.631 60.6613C180.795 76.9752 180.67 93.292 180.655 110.179Z" fill="#3063E6"/>
<path d="M338.042 56.6485V65.5669C338.042 82.0825 332.757 95.4601 322.188 105.7C311.618 115.939 297.965 121.059 281.229 121.059C263.392 121.059 248.583 115.279 236.802 103.718C225.131 92.0469 219.295 77.8435 219.295 61.1077C219.295 44.2618 225.076 30.0033 236.637 18.3323C248.308 6.66129 262.731 0.825778 279.908 0.825778C290.698 0.825778 300.552 3.30312 309.471 8.25779C318.389 13.1024 325.325 19.5985 330.28 27.7462L310.792 38.9768C308.039 34.2423 303.855 30.3887 298.24 27.4159C292.735 24.4431 286.569 22.9567 279.742 22.9567C268.732 22.9567 259.648 26.5901 252.492 33.857C245.445 41.0137 241.922 50.0973 241.922 61.1077C241.922 72.008 245.5 81.0365 252.657 88.1932C259.924 95.2399 269.503 98.7632 281.394 98.7632C290.202 98.7632 297.469 96.8364 303.195 92.9827C309.03 89.019 312.994 83.6239 315.086 76.7975H280.073V56.6485H338.042Z" fill="#111111"/>
<path d="M363.833 26.2598C360.309 26.2598 357.226 24.9936 354.584 22.4612C352.051 19.8187 350.785 16.7358 350.785 13.2125C350.785 9.68915 352.051 6.60624 354.584 3.96374C357.226 1.32125 360.309 0 363.833 0C367.466 0 370.549 1.32125 373.081 3.96374C375.724 6.60624 377.045 9.68915 377.045 13.2125C377.045 16.7358 375.724 19.8187 373.081 22.4612C370.549 24.9936 367.466 26.2598 363.833 26.2598ZM353.263 118.747V36.1691H374.568V118.747H353.263Z" fill="#111111"/>
<path d="M415.373 50.3725C417.355 45.0876 420.603 41.1238 425.117 38.4813C429.741 35.8388 434.861 34.5176 440.477 34.5176V58.3C433.98 57.5293 428.145 58.8505 422.97 62.2638C417.905 65.677 415.373 71.3473 415.373 79.2748V118.747H394.068V36.1691H415.373V50.3725Z" fill="#111111"/>
<path d="M544.268 33.857C553.737 33.857 561.279 36.9399 566.894 43.1057C572.62 49.2715 575.482 57.5293 575.482 67.8791V118.747H554.177V69.3655C554.177 64.4108 552.966 60.5571 550.544 57.8046C548.122 55.052 544.708 53.6757 540.304 53.6757C535.46 53.6757 531.661 55.2722 528.908 58.4652C526.266 61.6582 524.945 66.2825 524.945 72.3383V118.747H503.64V69.3655C503.64 64.4108 502.428 60.5571 500.006 57.8046C497.584 55.052 494.171 53.6757 489.767 53.6757C485.032 53.6757 481.233 55.2722 478.371 58.4652C475.618 61.6582 474.242 66.2825 474.242 72.3383V118.747H452.937V36.1691H474.242V44.9224C479.197 37.5454 486.849 33.857 497.199 33.857C507.328 33.857 514.815 37.8207 519.66 45.7482C525.165 37.8207 533.368 33.857 544.268 33.857Z" fill="#111111"/>
<path d="M656.337 36.1691H677.642V118.747H656.337V109.003C649.951 117.04 640.977 121.059 629.416 121.059C618.406 121.059 608.937 116.875 601.009 108.507C593.192 100.029 589.283 89.6796 589.283 77.4581C589.283 65.2366 593.192 54.9418 601.009 46.574C608.937 38.096 618.406 33.857 629.416 33.857C640.977 33.857 649.951 37.8757 656.337 45.9133V36.1691ZM617.029 94.304C621.324 98.598 626.774 100.745 633.38 100.745C639.986 100.745 645.436 98.598 649.73 94.304C654.134 89.8998 656.337 84.2845 656.337 77.4581C656.337 70.6317 654.134 65.0714 649.73 60.7774C645.436 56.3732 639.986 54.1711 633.38 54.1711C626.774 54.1711 621.324 56.3732 617.029 60.7774C612.735 65.0714 610.588 70.6317 610.588 77.4581C610.588 84.2845 612.735 89.8998 617.029 94.304Z" fill="#111111"/>
<path d="M742.874 33.857C751.903 33.857 759.335 36.8848 765.17 42.9405C771.116 48.9962 774.089 57.3641 774.089 68.0442V118.747H752.784V70.6867C752.784 65.1815 751.297 60.9976 748.324 58.1349C745.352 55.1621 741.388 53.6757 736.433 53.6757C730.928 53.6757 726.524 55.3823 723.221 58.7955C719.918 62.2087 718.266 67.3285 718.266 74.155V118.747H696.961V36.1691H718.266V45.4179C723.441 37.7106 731.644 33.857 742.874 33.857Z" fill="#111111"/>
</svg>
